<?xml version="1.0" encoding="UTF-8"?>
<svg xmlns="http://www.w3.org/2000/svg" width="380" height="300" version="1.1">
	
	<style type="text/css">
		rect {stroke-width:2;}
		.hw {fill:#74ffb5;stroke:#008066;}
		text {text-anchor:middle;color:#000;font-size:22px;font-family:Bitstream Vera Sans,sans-serif;}
		line {stroke:black;stroke-width:3;marker-start:url(#arrowStart);marker-end:url(#arrowEnd);}
	</style>
	
	<defs>
		<marker id="arrowEnd" markerWidth="4" markerHeight="3" refX="1" refY="1.5" orient="auto">
			<polygon points="0,3 4,1.5 0,0 1,1.5" style="fill:#000;stroke:none;"/>
		</marker>
		<marker id="arrowStart" markerWidth="4" markerHeight="3" refX="3" refY="1.5" orient="auto">
			<polygon points="4,3 0,1.5 4,0 3,1.5" style="fill:#000;stroke:none;"/>
		</marker>
	</defs>
	
<g id="hardware">
	<rect class="hw" x="15" y="203" width="100" height="80" rx="8" ry="8"/>
	<rect class="hw" x="139" y="203" width="100" height="80" rx="8" ry="8"/>
	<rect class="hw" x="263" y="203" width="100" height="80" rx="8" ry="8"/>
	<switch><text x="66" y="252" id="trsvg6-tr" systemLanguage="tr"><tspan id="trsvg1-tr">CPU</tspan></text><text x="66" y="252" id="trsvg6"><tspan id="trsvg1">CPU</tspan></text></switch>
	<switch><text x="190" y="252" id="trsvg7-tr" systemLanguage="tr"><tspan id="trsvg2-tr">Bellek</tspan></text><text x="190" y="252" id="trsvg7"><tspan id="trsvg2">Memory</tspan></text></switch>
	<switch><text x="314" y="252" id="trsvg8-tr" systemLanguage="tr"><tspan id="trsvg3-tr">Donanım</tspan></text><text x="314" y="252" id="trsvg8"><tspan id="trsvg3">Devices</tspan></text></switch>
</g>

<g id="kernel">
	<rect x="15" y="109" width="348" height="80" rx="8" ry="8" style="fill:#989dff;stroke:#000080;"/>
	<switch><text x="190" y="158" id="trsvg9-tr" systemLanguage="tr"><tspan id="trsvg4-tr">Çekirdek</tspan></text><text x="190" y="158" id="trsvg9"><tspan id="trsvg4">Kernel</tspan></text></switch>
</g>
	
<g id="apps">
	<rect x="15" y="15" width="348" height="80" rx="8" ry="8" style="fill:#ff818a;stroke:red;"/>
	<switch><text x="190" y="64" id="trsvg10-tr" systemLanguage="tr"><tspan id="trsvg5-tr">Uygulamalar</tspan></text><text x="190" y="64" id="trsvg10"><tspan id="trsvg5">Applications</tspan></text></switch>
</g>

<g id="arrows">
	<line x1="190" y1="87" x2="190" y2="119"/>
	<line x1="66" y1="181" x2="66" y2="213"/>
	<line x1="190" y1="181" x2="190" y2="213"/>
	<line x1="314" y1="181" x2="314" y2="213"/>
</g>

</svg>
